<svg xmlns="http://www.w3.org/2000/svg" viewBox="0 0 64 64">
  <defs>
    <linearGradient id="gradient-box" x1="0%" y1="0%" x2="100%" y2="100%">
      <stop offset="0%" style="stop-color:#6366f1;stop-opacity:1" />
      <stop offset="100%" style="stop-color:#8b5cf6;stop-opacity:1" />
    </linearGradient>
  </defs>
  
  <!-- 盒子主体 -->
  <path d="M8 24 L8 52 Q8 56 12 56 L52 56 Q56 56 56 52 L56 24 L32 12 Z" 
        fill="rgba(99, 102, 241, 0.15)"/>
  
  <!-- 盒子顶部 -->
  <path d="M8 24 L32 12 L56 24 L32 36 Z" 
        fill="url(#gradient-box)"/>
  
  <!-- 盒子边框 -->
  <path d="M8 24 L8 52 Q8 56 12 56 L52 56 Q56 56 56 52 L56 24" 
        fill="none" stroke="url(#gradient-box)" stroke-width="2" stroke-linejoin="round"/>
  <path d="M32 12 L32 56" 
        fill="none" stroke="url(#gradient-box)" stroke-width="2" stroke-linejoin="round"/>
  
  <!-- 装饰线 -->
  <path d="M12 40 L24 40" 
        fill="none" stroke="rgba(255,255,255,0.2)" stroke-width="1.5"/>
  <path d="M40 40 L52 40" 
        fill="none" stroke="rgba(255,255,255,0.2)" stroke-width="1.5"/>
  
  <!-- 闭合扣子 -->
  <rect x="28" y="28" width="8" height="6" rx="1" 
        fill="rgba(255,255,255,0.15)" stroke="rgba(255,255,255,0.2)" stroke-width="1"/>
</svg>