<svg xmlns="http://www.w3.org/2000/svg" viewBox="0 0 64 64">
  <defs>
    <linearGradient id="gradient-folder" x1="0%" y1="0%" x2="100%" y2="100%">
      <stop offset="0%" style="stop-color:#fbbf24;stop-opacity:1" />
      <stop offset="100%" style="stop-color:#f59e0b;stop-opacity:1" />
    </linearGradient>
  </defs>
  
  <!-- 文件夹主体 -->
  <path d="M8 20 L8 52 Q8 56 12 56 L52 56 Q56 56 56 52 L56 24 Q56 20 52 20 L30 20 L26 16 L12 16 Q8 16 8 20 Z" 
        fill="rgba(251, 191, 36, 0.15)" 
        stroke="url(#gradient-folder)" 
        stroke-width="2"/>
  
  <!-- 文件夹翻盖 -->
  <path d="M8 20 L30 20 L26 16 L12 16 Q8 16 8 20 Z" 
        fill="url(#gradient-folder)"/>
  
  <!-- 文件夹内部文件示意 -->
  <rect x="16" y="28" width="32" height="4" rx="1" fill="rgba(255,255,255,0.15)"/>
  <rect x="16" y="36" width="24" height="4" rx="1" fill="rgba(255,255,255,0.1)"/>
  <rect x="16" y="44" width="28" height="4" rx="1" fill="rgba(255,255,255,0.1)"/>
</svg>