<svg xmlns="http://www.w3.org/2000/svg" viewBox="0 0 64 64">
  <defs>
    <linearGradient id="gradient-hand" x1="0%" y1="0%" x2="100%" y2="100%">
      <stop offset="0%" style="stop-color:#fbbf24;stop-opacity:1" />
      <stop offset="100%" style="stop-color:#f59e0b;stop-opacity:1" />
    </linearGradient>
  </defs>
  
  <!-- 手掌 -->
  <path d="M24 36 L24 24 Q24 18 28 18 Q32 18 32 24 L32 30 L32 20 Q32 14 36 14 Q40 14 40 20 L40 28 L40 18 Q40 12 44 12 Q48 12 48 18 L48 34 Q50 38 50 44 Q50 50 44 54 L30 54 Q26 54 24 50 L16 44 L16 36 Q16 32 20 32 Q22 32 24 34 Z" 
        fill="rgba(251, 191, 36, 0.15)" 
        stroke="url(#gradient-hand)" 
        stroke-width="2" 
        stroke-linejoin="round"/>
  
  <!-- 装饰线 -->
  <path d="M28 30 L28 40" 
        stroke="rgba(255,255,255,0.15)" stroke-width="1.5" stroke-linecap="round"/>
  <path d="M36 26 L36 40" 
        stroke="rgba(255,255,255,0.15)" stroke-width="1.5" stroke-linecap="round"/>
  <path d="M44 24 L44 40" 
        stroke="rgba(255,255,255,0.15)" stroke-width="1.5" stroke-linecap="round"/>
</svg>